<svg width="800" height="400" viewBox="0 0 800 400" xmlns="http://www.w3.org/2000/svg"><mask id="satori_om-id"><rect x="0" y="0" width="800" height="400" fill="#fff"/></mask><rect x="0" y="0" width="800" height="400" fill="#050505"/><clipPath id="satori_cp-id-0"><rect x="363" y="104" width="75" height="65"/></clipPath><mask id="satori_om-id-0"><rect x="363" y="104" width="75" height="65" fill="#fff"/></mask><image x="363" y="104" width="75" height="65" href="data:image/svg+xml;utf8,%3Csvg  fill=%22%23fff%22 xmlns=%22http://www.w3.org/2000/svg%22 width=%22NaN%22 height=%22null%22 viewBox=%220 0 75 65%22%3E%3Cpath d=%22M37.59.25l36.95 64H.64l36.95-64z%22%3E%3C/path%3E%3C/svg%3E" preserveAspectRatio="none" clip-path="url(#satori_cp-id-0)" mask="url(#satori_om-id-0)"/><mask id="satori_om-id-0-0"><rect x="363" y="104" width="0" height="65" fill="#fff"/></mask><mask id="satori_om-id-1"><rect x="276" y="209" width="249" height="39" fill="#fff"/></mask><g  ><path fill="#fff" d="M294.3 246.5L289.5 246.5L289.5 237.2L289.3 237.2Q289.0 237.9 288.4 238.6Q287.7 239.4 286.8 239.8Q285.8 240.3 284.4 240.3L284.4 240.3Q282.4 240.3 280.8 239.3Q279.2 238.2 278.2 236.2Q277.3 234.2 277.3 231.3L277.3 231.3Q277.3 228.3 278.3 226.3Q279.2 224.3 280.8 223.3Q282.4 222.3 284.4 222.3L284.4 222.3Q285.8 222.3 286.8 222.8Q287.8 223.3 288.4 224.0Q289 224.8 289.3 225.5L289.3 225.5L289.5 225.5L289.5 222.5L294.3 222.5L294.3 246.5ZM285.9 236.4L285.9 236.4Q287.1 236.4 287.9 235.8Q288.7 235.1 289.1 234.0Q289.6 232.8 289.6 231.3L289.6 231.3Q289.6 229.7 289.1 228.6Q288.7 227.4 287.9 226.8Q287.1 226.2 285.9 226.2L285.9 226.2Q284.7 226.2 283.9 226.8Q283.1 227.5 282.6 228.6Q282.2 229.8 282.2 231.3L282.2 231.3Q282.2 232.8 282.7 234.0Q283.1 235.1 283.9 235.8Q284.7 236.4 285.9 236.4ZM309.4 232.6L309.4 232.6L309.4 222.5L314.2 222.5L314.2 240L309.6 240L309.6 236.8L309.4 236.8Q308.8 238.4 307.4 239.3Q306.0 240.2 304.1 240.2L304.1 240.2Q302.3 240.2 301 239.4Q299.7 238.6 298.9 237.2Q298.2 235.7 298.2 233.7L298.2 233.7L298.2 222.5L303.0 222.5L303.0 232.8Q303.0 234.3 303.8 235.2Q304.7 236.1 306.0 236.1L306.0 236.1Q306.9 236.1 307.7 235.7Q308.4 235.3 308.9 234.5Q309.4 233.7 309.4 232.6ZM322.9 240L318.1 240L318.1 222.5L322.9 222.5L322.9 240ZM320.5 220.3L320.5 220.3Q319.4 220.3 318.7 219.6Q317.9 218.9 317.9 217.8L317.9 217.8Q317.9 216.8 318.7 216.1Q319.4 215.4 320.5 215.4L320.5 215.4Q321.6 215.4 322.3 216.1Q323.1 216.8 323.1 217.8L323.1 217.8Q323.1 218.9 322.3 219.6Q321.6 220.3 320.5 220.3ZM334.7 240.3L334.7 240.3Q332.0 240.3 330.1 239.2Q328.1 238.1 327.1 236.0Q326.1 234.0 326.1 231.3L326.1 231.3Q326.1 228.7 327.1 226.6Q328.1 224.6 330.1 223.5Q332.0 222.3 334.6 222.3L334.6 222.3Q336.9 222.3 338.6 223.1Q340.4 224.0 341.4 225.5Q342.4 227.0 342.5 229L342.5 229L337.9 229Q337.7 227.7 336.9 226.9Q336.0 226.1 334.7 226.1L334.7 226.1Q333.6 226.1 332.8 226.7Q331.9 227.3 331.5 228.5Q331.0 229.6 331.0 231.3L331.0 231.3Q331.0 232.9 331.4 234.1Q331.9 235.3 332.8 235.9Q333.6 236.5 334.7 236.5L334.7 236.5Q335.5 236.5 336.2 236.2Q336.9 235.8 337.3 235.2Q337.8 234.5 337.9 233.6L337.9 233.6L342.5 233.6Q342.3 235.6 341.4 237.1Q340.4 238.6 338.7 239.5Q337.0 240.3 334.7 240.3ZM353.2 231.3L350.0 235.0L350.0 229.2L350.7 229.2L356.3 222.5L361.8 222.5L354.3 231.3L353.2 231.3ZM350.4 240L345.6 240L345.6 216.7L350.4 216.7L350.4 240ZM362.1 240L356.5 240L351.3 232.4L354.6 229.0L362.1 240ZM363.9 228.5L374.5 228.5L374.5 232.4L363.9 232.4L363.9 228.5ZM383.4 240L378.6 240L378.6 222.5L383.3 222.5L383.3 225.6L383.5 225.6Q384.0 224.0 385.1 223.1Q386.2 222.3 387.7 222.3L387.7 222.3Q388.0 222.3 388.5 222.3Q388.9 222.4 389.2 222.5L389.2 222.5L389.2 226.8Q388.9 226.7 388.3 226.6Q387.6 226.5 387.1 226.5L387.1 226.5Q386.1 226.5 385.2 227.0Q384.4 227.4 383.9 228.2Q383.4 229.1 383.4 230.1L383.4 230.1L383.4 240ZM398.8 240.3L398.8 240.3Q396.1 240.3 394.2 239.2Q392.3 238.1 391.2 236.1Q390.2 234.1 390.2 231.4L390.2 231.4Q390.2 228.7 391.2 226.6Q392.3 224.6 394.2 223.5Q396.1 222.3 398.6 222.3L398.6 222.3Q400.4 222.3 401.8 222.9Q403.3 223.4 404.5 224.5Q405.6 225.6 406.2 227.3Q406.8 229.0 406.8 231.2L406.8 231.2L406.8 232.5L392.1 232.5L392.1 229.5L402.3 229.5Q402.3 228.5 401.8 227.7Q401.4 226.9 400.6 226.4Q399.8 225.9 398.7 225.9L398.7 225.9Q397.6 225.9 396.8 226.4Q395.9 226.9 395.4 227.8Q395.0 228.6 394.9 229.7L394.9 229.7L394.9 232.5Q394.9 233.8 395.4 234.8Q395.9 235.7 396.8 236.2Q397.7 236.7 398.9 236.7L398.9 236.7Q399.7 236.7 400.4 236.5Q401.0 236.3 401.5 235.8Q402 235.4 402.3 234.7L402.3 234.7L406.7 235Q406.4 236.6 405.3 237.8Q404.3 239.0 402.6 239.7Q401.0 240.3 398.8 240.3ZM424.5 227.5L424.5 227.5L420.1 227.8Q420.0 227.2 419.6 226.8Q419.2 226.3 418.6 226.0Q418 225.8 417.2 225.8L417.2 225.8Q416.0 225.8 415.3 226.2Q414.5 226.7 414.5 227.5L414.5 227.5Q414.5 228.1 415.0 228.5Q415.5 229.0 416.7 229.2L416.7 229.2L419.9 229.9Q422.4 230.4 423.7 231.5Q424.9 232.7 424.9 234.6L424.9 234.6Q424.9 236.3 423.9 237.6Q422.9 238.9 421.2 239.6Q419.4 240.3 417.1 240.3L417.1 240.3Q413.7 240.3 411.6 238.9Q409.6 237.4 409.2 234.9L409.2 234.9L414.0 234.7Q414.2 235.8 415.0 236.3Q415.9 236.9 417.1 236.9L417.1 236.9Q418.4 236.9 419.2 236.4Q420.0 235.9 420.0 235.1L420.0 235.1Q420.0 234.4 419.4 234.0Q418.9 233.6 417.8 233.3L417.8 233.3L414.7 232.7Q412.2 232.2 410.9 231.0Q409.7 229.7 409.7 227.8L409.7 227.8Q409.7 226.1 410.6 224.9Q411.5 223.6 413.2 223.0Q414.8 222.3 417.1 222.3L417.1 222.3Q420.4 222.3 422.3 223.7Q424.2 225.1 424.5 227.5ZM432.8 246.5L428.0 246.5L428.0 222.5L432.7 222.5L432.7 225.5L433.0 225.5Q433.3 224.8 433.9 224.0Q434.5 223.3 435.5 222.8Q436.5 222.3 437.9 222.3L437.9 222.3Q439.8 222.3 441.4 223.3Q443.1 224.3 444.0 226.3Q445.0 228.3 445.0 231.3L445.0 231.3Q445.0 234.2 444.1 236.2Q443.1 238.2 441.5 239.3Q439.9 240.3 437.9 240.3L437.9 240.3Q436.5 240.3 435.5 239.8Q434.5 239.4 433.9 238.6Q433.3 237.9 433.0 237.2L433.0 237.2L432.8 237.2L432.8 246.5ZM432.7 231.3L432.7 231.3Q432.7 232.8 433.1 234.0Q433.6 235.1 434.4 235.8Q435.2 236.4 436.4 236.4L436.4 236.4Q437.6 236.4 438.4 235.8Q439.2 235.1 439.6 234.0Q440.0 232.8 440.0 231.3L440.0 231.3Q440.0 229.8 439.6 228.6Q439.2 227.5 438.4 226.8Q437.6 226.2 436.4 226.2L436.4 226.2Q435.2 226.2 434.4 226.8Q433.6 227.4 433.1 228.6Q432.7 229.7 432.7 231.3ZM456.1 240.3L456.1 240.3Q453.4 240.3 451.5 239.2Q449.6 238.1 448.5 236.1Q447.5 234.0 447.5 231.3L447.5 231.3Q447.5 228.6 448.5 226.6Q449.6 224.6 451.5 223.4Q453.4 222.3 456.1 222.3L456.1 222.3Q458.7 222.3 460.7 223.4Q462.6 224.6 463.6 226.6Q464.7 228.6 464.7 231.3L464.7 231.3Q464.7 234.0 463.6 236.1Q462.6 238.1 460.7 239.2Q458.7 240.3 456.1 240.3ZM456.1 236.6L456.1 236.6Q457.3 236.6 458.1 235.9Q458.9 235.2 459.3 234.0Q459.8 232.8 459.8 231.3L459.8 231.3Q459.8 229.8 459.3 228.6Q458.9 227.4 458.1 226.7Q457.3 226.0 456.1 226.0L456.1 226.0Q454.9 226.0 454.1 226.7Q453.3 227.4 452.8 228.6Q452.4 229.8 452.4 231.3L452.4 231.3Q452.4 232.8 452.8 234.0Q453.3 235.2 454.1 235.9Q454.9 236.6 456.1 236.6ZM472.7 229.9L472.7 229.9L472.7 240L467.8 240L467.8 222.5L472.5 222.5L472.5 225.6L472.7 225.6Q473.2 224.1 474.6 223.2Q476.0 222.3 477.9 222.3L477.9 222.3Q479.7 222.3 481.1 223.1Q482.4 223.9 483.2 225.4Q483.9 226.9 483.9 228.9L483.9 228.9L483.9 240L479.1 240L479.1 229.8Q479.1 228.1 478.3 227.2Q477.4 226.3 476.0 226.3L476.0 226.3Q475.0 226.3 474.3 226.8Q473.5 227.2 473.1 228.0Q472.7 228.8 472.7 229.9ZM502.3 227.5L502.3 227.5L497.8 227.8Q497.7 227.2 497.3 226.8Q497.0 226.3 496.4 226.0Q495.8 225.8 494.9 225.8L494.9 225.8Q493.8 225.8 493.0 226.2Q492.2 226.7 492.2 227.5L492.2 227.5Q492.2 228.1 492.7 228.5Q493.2 229.0 494.5 229.2L494.5 229.2L497.6 229.9Q500.2 230.4 501.4 231.5Q502.7 232.7 502.7 234.6L502.7 234.6Q502.7 236.3 501.7 237.6Q500.6 238.9 498.9 239.6Q497.2 240.3 494.9 240.3L494.9 240.3Q491.4 240.3 489.4 238.9Q487.3 237.4 487.0 234.9L487.0 234.9L491.7 234.7Q491.9 235.8 492.8 236.3Q493.6 236.9 494.9 236.9L494.9 236.9Q496.2 236.9 496.9 236.4Q497.7 235.9 497.7 235.1L497.7 235.1Q497.7 234.4 497.2 234.0Q496.6 233.6 495.5 233.3L495.5 233.3L492.5 232.7Q489.9 232.2 488.7 231.0Q487.4 229.7 487.4 227.8L487.4 227.8Q487.4 226.1 488.3 224.9Q489.3 223.6 490.9 223.0Q492.6 222.3 494.8 222.3L494.8 222.3Q498.1 222.3 500.0 223.7Q501.9 225.1 502.3 227.5ZM513.7 240.3L513.7 240.3Q511.0 240.3 509.0 239.2Q507.1 238.1 506.1 236.1Q505.0 234.1 505.0 231.4L505.0 231.4Q505.0 228.7 506.1 226.6Q507.1 224.6 509.0 223.5Q510.9 222.3 513.5 222.3L513.5 222.3Q515.2 222.3 516.7 222.9Q518.2 223.4 519.3 224.5Q520.4 225.6 521.1 227.3Q521.7 229.0 521.7 231.2L521.7 231.2L521.7 232.5L506.9 232.5L506.9 229.5L517.1 229.5Q517.1 228.5 516.7 227.7Q516.2 226.9 515.4 226.4Q514.6 225.9 513.6 225.9L513.6 225.9Q512.5 225.9 511.6 226.4Q510.8 226.9 510.3 227.8Q509.8 228.6 509.8 229.7L509.8 229.7L509.8 232.5Q509.8 233.8 510.3 234.8Q510.8 235.7 511.6 236.2Q512.5 236.7 513.8 236.7L513.8 236.7Q514.6 236.7 515.2 236.5Q515.9 236.3 516.4 235.8Q516.9 235.4 517.1 234.7L517.1 234.7L521.6 235Q521.2 236.6 520.2 237.8Q519.1 239.0 517.5 239.7Q515.8 240.3 513.7 240.3Z "/></g><mask id="satori_om-id-2"><rect x="118" y="258" width="564" height="39" fill="#fff"/></mask><g  ><path fill="#666" d="M124.8 295.5L119.9 295.5L119.9 271.5L124.7 271.5L124.7 274.5L124.9 274.5Q125.2 273.8 125.8 273.0Q126.5 272.3 127.4 271.8Q128.4 271.3 129.9 271.3L129.9 271.3Q131.8 271.3 133.4 272.3Q135.0 273.3 136.0 275.3Q137.0 277.3 137.0 280.3L137.0 280.3Q137.0 283.2 136.0 285.2Q135.1 287.2 133.5 288.3Q131.9 289.3 129.9 289.3L129.9 289.3Q128.5 289.3 127.5 288.8Q126.5 288.4 125.9 287.6Q125.3 286.9 124.9 286.2L124.9 286.2L124.8 286.2L124.8 295.5ZM124.7 280.3L124.7 280.3Q124.7 281.8 125.1 283.0Q125.5 284.1 126.4 284.8Q127.2 285.4 128.3 285.4L128.3 285.4Q129.5 285.4 130.3 284.8Q131.2 284.1 131.6 283.0Q132.0 281.8 132.0 280.3L132.0 280.3Q132.0 278.8 131.6 277.6Q131.2 276.5 130.4 275.8Q129.5 275.2 128.3 275.2L128.3 275.2Q127.2 275.2 126.3 275.8Q125.5 276.4 125.1 277.6Q124.7 278.7 124.7 280.3ZM148.1 289.3L148.1 289.3Q145.4 289.3 143.5 288.2Q141.6 287.1 140.5 285.1Q139.5 283.0 139.5 280.3L139.5 280.3Q139.5 277.6 140.5 275.6Q141.6 273.6 143.5 272.4Q145.4 271.3 148.1 271.3L148.1 271.3Q150.7 271.3 152.6 272.4Q154.6 273.6 155.6 275.6Q156.6 277.6 156.6 280.3L156.6 280.3Q156.6 283.0 155.6 285.1Q154.6 287.1 152.6 288.2Q150.7 289.3 148.1 289.3ZM148.1 285.6L148.1 285.6Q149.3 285.6 150.1 284.9Q150.9 284.2 151.3 283.0Q151.7 281.8 151.7 280.3L151.7 280.3Q151.7 278.8 151.3 277.6Q150.9 276.4 150.1 275.7Q149.3 275.0 148.1 275.0L148.1 275.0Q146.9 275.0 146.0 275.7Q145.2 276.4 144.8 277.6Q144.4 278.8 144.4 280.3L144.4 280.3Q144.4 281.8 144.8 283.0Q145.2 284.2 146.0 284.9Q146.9 285.6 148.1 285.6ZM167.9 289L162.8 289L158.1 271.5L163.0 271.5L165.7 283.3L165.8 283.3L168.6 271.5L173.5 271.5L176.3 283.2L176.5 283.2L179.1 271.5L184.0 271.5L179.3 289L174.1 289L171.1 278.0L170.9 278.0L167.9 289ZM194.1 289.3L194.1 289.3Q191.4 289.3 189.5 288.2Q187.5 287.1 186.5 285.1Q185.4 283.1 185.4 280.4L185.4 280.4Q185.4 277.7 186.5 275.6Q187.5 273.6 189.4 272.5Q191.3 271.3 193.9 271.3L193.9 271.3Q195.6 271.3 197.1 271.9Q198.6 272.4 199.7 273.5Q200.9 274.6 201.5 276.3Q202.1 278.0 202.1 280.2L202.1 280.2L202.1 281.5L187.4 281.5L187.4 278.5L197.6 278.5Q197.6 277.5 197.1 276.7Q196.6 275.9 195.8 275.4Q195.0 274.9 194.0 274.9L194.0 274.9Q192.9 274.9 192.0 275.4Q191.2 275.9 190.7 276.8Q190.2 277.6 190.2 278.7L190.2 278.7L190.2 281.5Q190.2 282.8 190.7 283.8Q191.2 284.7 192.1 285.2Q193.0 285.7 194.2 285.7L194.2 285.7Q195.0 285.7 195.7 285.5Q196.3 285.3 196.8 284.8Q197.3 284.4 197.5 283.7L197.5 283.7L202.0 284Q201.7 285.6 200.6 286.8Q199.6 288.0 197.9 288.7Q196.3 289.3 194.1 289.3ZM210.1 289L205.3 289L205.3 271.5L210.0 271.5L210.0 274.6L210.1 274.6Q210.6 273.0 211.8 272.1Q212.9 271.3 214.3 271.3L214.3 271.3Q214.7 271.3 215.1 271.3Q215.5 271.4 215.9 271.5L215.9 271.5L215.9 275.8Q215.5 275.7 214.9 275.6Q214.3 275.5 213.8 275.5L213.8 275.5Q212.8 275.5 211.9 276.0Q211.1 276.4 210.6 277.2Q210.1 278.1 210.1 279.1L210.1 279.1L210.1 289ZM225.5 289.3L225.5 289.3Q222.8 289.3 220.9 288.2Q218.9 287.1 217.9 285.1Q216.8 283.1 216.8 280.4L216.8 280.4Q216.8 277.7 217.9 275.6Q218.9 273.6 220.8 272.5Q222.7 271.3 225.3 271.3L225.3 271.3Q227.0 271.3 228.5 271.9Q230.0 272.4 231.1 273.5Q232.3 274.6 232.9 276.3Q233.5 278.0 233.5 280.2L233.5 280.2L233.5 281.5L218.8 281.5L218.8 278.5L228.9 278.5Q228.9 277.5 228.5 276.7Q228.0 275.9 227.2 275.4Q226.4 274.9 225.4 274.9L225.4 274.9Q224.3 274.9 223.4 275.4Q222.6 275.9 222.1 276.8Q221.6 277.6 221.6 278.7L221.6 278.7L221.6 281.5Q221.6 282.8 222.1 283.8Q222.6 284.7 223.5 285.2Q224.4 285.7 225.6 285.7L225.6 285.7Q226.4 285.7 227.0 285.5Q227.7 285.3 228.2 284.8Q228.7 284.4 228.9 283.7L228.9 283.7L233.4 284Q233.1 285.6 232.0 286.8Q231.0 288.0 229.3 288.7Q227.6 289.3 225.5 289.3ZM243.1 289.3L243.1 289.3Q241.1 289.3 239.5 288.3Q237.9 287.2 236.9 285.2Q236.0 283.2 236.0 280.3L236.0 280.3Q236.0 277.3 237.0 275.3Q237.9 273.3 239.6 272.3Q241.2 271.3 243.1 271.3L243.1 271.3Q244.5 271.3 245.5 271.8Q246.5 272.3 247.1 273.0Q247.7 273.8 248.0 274.5L248.0 274.5L248.2 274.5L248.2 265.7L253.0 265.7L253.0 289L248.3 289L248.3 286.2L248.0 286.2Q247.7 286.9 247.1 287.6Q246.5 288.4 245.5 288.8Q244.5 289.3 243.1 289.3ZM244.6 285.4L244.6 285.4Q245.8 285.4 246.6 284.8Q247.4 284.1 247.9 283.0Q248.3 281.8 248.3 280.3L248.3 280.3Q248.3 278.7 247.9 277.6Q247.4 276.4 246.6 275.8Q245.8 275.2 244.6 275.2L244.6 275.2Q243.4 275.2 242.6 275.8Q241.8 276.5 241.4 277.6Q241.0 278.8 241.0 280.3L241.0 280.3Q241.0 281.8 241.4 283.0Q241.8 284.1 242.6 284.8Q243.4 285.4 244.6 285.4Z M271.0 289L266.2 289L266.2 265.7L271.0 265.7L271.0 274.5L271.2 274.5Q271.5 273.8 272.1 273.0Q272.7 272.3 273.7 271.8Q274.7 271.3 276.1 271.3L276.1 271.3Q278.0 271.3 279.7 272.3Q281.3 273.3 282.2 275.3Q283.2 277.3 283.2 280.3L283.2 280.3Q283.2 283.2 282.3 285.2Q281.3 287.2 279.7 288.3Q278.1 289.3 276.1 289.3L276.1 289.3Q274.7 289.3 273.7 288.8Q272.7 288.4 272.1 287.6Q271.5 286.9 271.2 286.2L271.2 286.2L271.0 286.2L271.0 289ZM270.9 280.3L270.9 280.3Q270.9 281.8 271.4 283.0Q271.8 284.1 272.6 284.8Q273.4 285.4 274.6 285.4L274.6 285.4Q275.8 285.4 276.6 284.8Q277.4 284.1 277.8 283.0Q278.3 281.8 278.3 280.3L278.3 280.3Q278.3 278.8 277.8 277.6Q277.4 276.5 276.6 275.8Q275.8 275.2 274.6 275.2L274.6 275.2Q273.4 275.2 272.6 275.8Q271.8 276.4 271.4 277.6Q270.9 278.7 270.9 280.3ZM288.8 295.5L288.8 295.5Q287.9 295.5 287.1 295.4Q286.3 295.3 285.8 295.0L285.8 295.0L286.9 291.4Q287.7 291.7 288.4 291.7Q289.1 291.7 289.6 291.4Q290.1 291.1 290.4 290.2L290.4 290.2L290.7 289.5L284.5 271.5L289.5 271.5L293.2 284.4L293.3 284.4L297.0 271.5L302.1 271.5L295.3 290.9Q294.8 292.3 294.0 293.3Q293.2 294.4 291.9 295.0Q290.6 295.5 288.8 295.5Z M323.7 271.5L328.9 271.5L322.8 289L317.3 289L311.2 271.5L316.3 271.5L319.9 284.0L320.1 284.0L323.7 271.5ZM338.7 289.3L338.7 289.3Q336.0 289.3 334.1 288.2Q332.1 287.1 331.1 285.1Q330.1 283.1 330.1 280.4L330.1 280.4Q330.1 277.7 331.1 275.6Q332.1 273.6 334.1 272.5Q336.0 271.3 338.5 271.3L338.5 271.3Q340.3 271.3 341.7 271.9Q343.2 272.4 344.4 273.5Q345.5 274.6 346.1 276.3Q346.7 278.0 346.7 280.2L346.7 280.2L346.7 281.5L332.0 281.5L332.0 278.5L342.2 278.5Q342.2 277.5 341.7 276.7Q341.3 275.9 340.5 275.4Q339.7 274.9 338.6 274.9L338.6 274.9Q337.5 274.9 336.7 275.4Q335.8 275.9 335.3 276.8Q334.9 277.6 334.8 278.7L334.8 278.7L334.8 281.5Q334.8 282.8 335.3 283.8Q335.8 284.7 336.7 285.2Q337.6 285.7 338.8 285.7L338.8 285.7Q339.6 285.7 340.3 285.5Q340.9 285.3 341.4 284.8Q341.9 284.4 342.1 283.7L342.1 283.7L346.6 284Q346.3 285.6 345.2 286.8Q344.2 288.0 342.5 288.7Q340.9 289.3 338.7 289.3ZM354.7 289L349.9 289L349.9 271.5L354.6 271.5L354.6 274.6L354.8 274.6Q355.2 273.0 356.4 272.1Q357.5 271.3 359.0 271.3L359.0 271.3Q359.3 271.3 359.7 271.3Q360.2 271.4 360.5 271.5L360.5 271.5L360.5 275.8Q360.1 275.7 359.5 275.6Q358.9 275.5 358.4 275.5L358.4 275.5Q357.4 275.5 356.5 276.0Q355.7 276.4 355.2 277.2Q354.7 278.1 354.7 279.1L354.7 279.1L354.7 289ZM370.0 289.3L370.0 289.3Q367.4 289.3 365.4 288.2Q363.5 287.1 362.5 285.0Q361.4 283.0 361.4 280.3L361.4 280.3Q361.4 277.7 362.5 275.6Q363.5 273.6 365.4 272.5Q367.4 271.3 370.0 271.3L370.0 271.3Q372.3 271.3 374.0 272.1Q375.7 273.0 376.7 274.5Q377.7 276.0 377.8 278L377.8 278L373.3 278Q373.1 276.7 372.2 275.9Q371.4 275.1 370.1 275.1L370.1 275.1Q369.0 275.1 368.1 275.7Q367.3 276.3 366.8 277.5Q366.4 278.6 366.4 280.3L366.4 280.3Q366.4 281.9 366.8 283.1Q367.3 284.3 368.1 284.9Q369.0 285.5 370.1 285.5L370.1 285.5Q370.9 285.5 371.6 285.2Q372.3 284.8 372.7 284.2Q373.1 283.5 373.3 282.6L373.3 282.6L377.8 282.6Q377.7 284.6 376.7 286.1Q375.8 287.6 374.1 288.5Q372.4 289.3 370.0 289.3ZM388.9 289.3L388.9 289.3Q386.2 289.3 384.3 288.2Q382.3 287.1 381.3 285.1Q380.2 283.1 380.2 280.4L380.2 280.4Q380.2 277.7 381.3 275.6Q382.3 273.6 384.2 272.5Q386.1 271.3 388.7 271.3L388.7 271.3Q390.4 271.3 391.9 271.9Q393.4 272.4 394.5 273.5Q395.7 274.6 396.3 276.3Q396.9 278.0 396.9 280.2L396.9 280.2L396.9 281.5L382.2 281.5L382.2 278.5L392.4 278.5Q392.4 277.5 391.9 276.7Q391.4 275.9 390.6 275.4Q389.8 274.9 388.8 274.9L388.8 274.9Q387.7 274.9 386.8 275.4Q386.0 275.9 385.5 276.8Q385.0 277.6 385.0 278.7L385.0 278.7L385.0 281.5Q385.0 282.8 385.5 283.8Q386.0 284.7 386.9 285.2Q387.8 285.7 389.0 285.7L389.0 285.7Q389.8 285.7 390.5 285.5Q391.1 285.3 391.6 284.8Q392.1 284.4 392.3 283.7L392.3 283.7L396.8 284Q396.5 285.6 395.4 286.8Q394.4 288.0 392.7 288.7Q391.1 289.3 388.9 289.3ZM400.1 265.7L404.9 265.7L404.9 289L400.1 289L400.1 265.7Z M424.0 289.3L424.0 289.3Q422.0 289.3 420.4 288.3Q418.8 287.2 417.9 285.2Q416.9 283.2 416.9 280.3L416.9 280.3Q416.9 277.3 417.9 275.3Q418.9 273.3 420.5 272.3Q422.1 271.3 424.0 271.3L424.0 271.3Q425.5 271.3 426.5 271.8Q427.4 272.3 428.1 273.0Q428.7 273.8 429.0 274.5L429.0 274.5L429.1 274.5L429.1 265.7L434.0 265.7L434.0 289L429.2 289L429.2 286.2L429.0 286.2Q428.6 286.9 428.0 287.6Q427.4 288.4 426.4 288.8Q425.4 289.3 424.0 289.3ZM425.6 285.4L425.6 285.4Q426.7 285.4 427.5 284.8Q428.4 284.1 428.8 283.0Q429.2 281.8 429.2 280.3L429.2 280.3Q429.2 278.7 428.8 277.6Q428.4 276.4 427.5 275.8Q426.7 275.2 425.6 275.2L425.6 275.2Q424.4 275.2 423.5 275.8Q422.7 276.5 422.3 277.6Q421.9 278.8 421.9 280.3L421.9 280.3Q421.9 281.8 422.3 283.0Q422.7 284.1 423.6 284.8Q424.4 285.4 425.6 285.4ZM445.8 289.3L445.8 289.3Q443.2 289.3 441.2 288.2Q439.3 287.1 438.3 285.1Q437.2 283.0 437.2 280.3L437.2 280.3Q437.2 277.6 438.3 275.6Q439.3 273.6 441.2 272.4Q443.2 271.3 445.8 271.3L445.8 271.3Q448.5 271.3 450.4 272.4Q452.3 273.6 453.4 275.6Q454.4 277.6 454.4 280.3L454.4 280.3Q454.4 283.0 453.4 285.1Q452.3 287.1 450.4 288.2Q448.5 289.3 445.8 289.3ZM445.8 285.6L445.8 285.6Q447.0 285.6 447.8 284.9Q448.6 284.2 449.1 283.0Q449.5 281.8 449.5 280.3L449.5 280.3Q449.5 278.8 449.1 277.6Q448.6 276.4 447.8 275.7Q447.0 275.0 445.8 275.0L445.8 275.0Q444.6 275.0 443.8 275.7Q443.0 276.4 442.6 277.6Q442.1 278.8 442.1 280.3L442.1 280.3Q442.1 281.8 442.6 283.0Q443.0 284.2 443.8 284.9Q444.6 285.6 445.8 285.6ZM465.4 289.3L465.4 289.3Q462.8 289.3 460.8 288.2Q458.9 287.1 457.9 285.0Q456.9 283.0 456.9 280.3L456.9 280.3Q456.9 277.7 457.9 275.6Q458.9 273.6 460.9 272.5Q462.8 271.3 465.4 271.3L465.4 271.3Q467.7 271.3 469.4 272.1Q471.1 273.0 472.1 274.5Q473.1 276.0 473.2 278L473.2 278L468.7 278Q468.5 276.7 467.7 275.9Q466.8 275.1 465.5 275.1L465.5 275.1Q464.4 275.1 463.5 275.7Q462.7 276.3 462.2 277.5Q461.8 278.6 461.8 280.3L461.8 280.3Q461.8 281.9 462.2 283.1Q462.7 284.3 463.5 284.9Q464.4 285.5 465.5 285.5L465.5 285.5Q466.3 285.5 467.0 285.2Q467.7 284.8 468.1 284.2Q468.5 283.5 468.7 282.6L468.7 282.6L473.2 282.6Q473.1 284.6 472.2 286.1Q471.2 287.6 469.5 288.5Q467.8 289.3 465.4 289.3ZM483.9 280.3L480.7 284.0L480.7 278.2L481.5 278.2L487.0 271.5L492.6 271.5L485.1 280.3L483.9 280.3ZM481.2 289L476.4 289L476.4 265.7L481.2 265.7L481.2 289ZM492.9 289L487.3 289L482.1 281.4L485.4 278.0L492.9 289ZM502.2 289.3L502.2 289.3Q499.5 289.3 497.6 288.2Q495.6 287.1 494.6 285.1Q493.5 283.1 493.5 280.4L493.5 280.4Q493.5 277.7 494.6 275.6Q495.6 273.6 497.5 272.5Q499.4 271.3 502.0 271.3L502.0 271.3Q503.7 271.3 505.2 271.9Q506.7 272.4 507.8 273.5Q509.0 274.6 509.6 276.3Q510.2 278.0 510.2 280.2L510.2 280.2L510.2 281.5L495.5 281.5L495.5 278.5L505.6 278.5Q505.6 277.5 505.2 276.7Q504.7 275.9 503.9 275.4Q503.1 274.9 502.1 274.9L502.1 274.9Q501.0 274.9 500.1 275.4Q499.3 275.9 498.8 276.8Q498.3 277.6 498.3 278.7L498.3 278.7L498.3 281.5Q498.3 282.8 498.8 283.8Q499.3 284.7 500.2 285.2Q501.1 285.7 502.3 285.7L502.3 285.7Q503.1 285.7 503.7 285.5Q504.4 285.3 504.9 284.8Q505.4 284.4 505.6 283.7L505.6 283.7L510.1 284Q509.8 285.6 508.7 286.8Q507.7 288.0 506.0 288.7Q504.4 289.3 502.2 289.3ZM518.2 289L513.4 289L513.4 271.5L518.1 271.5L518.1 274.6L518.2 274.6Q518.7 273.0 519.8 272.1Q521.0 271.3 522.4 271.3L522.4 271.3Q522.8 271.3 523.2 271.3Q523.6 271.4 524.0 271.5L524.0 271.5L524.0 275.8Q523.6 275.7 523.0 275.6Q522.4 275.5 521.9 275.5L521.9 275.5Q520.8 275.5 520.0 276.0Q519.2 276.4 518.7 277.2Q518.2 278.1 518.2 279.1L518.2 279.1L518.2 289ZM525.9 271.5L536.7 271.5L536.7 275.2L525.9 275.2L525.9 271.5ZM533.2 289L528.4 289L528.4 270.3Q528.4 268.4 529.1 267.1Q529.9 265.9 531.2 265.3Q532.5 264.6 534.1 264.6L534.1 264.6Q535.2 264.6 536.2 264.8Q537.1 265.0 537.5 265.1L537.5 265.1L536.7 268.8Q536.4 268.7 536.0 268.6Q535.6 268.5 535.1 268.5L535.1 268.5Q534.1 268.5 533.6 269.0Q533.2 269.5 533.2 270.4L533.2 270.4L533.2 289ZM544.5 289L539.7 289L539.7 271.5L544.5 271.5L544.5 289ZM542.1 269.3L542.1 269.3Q541.0 269.3 540.2 268.6Q539.5 267.9 539.5 266.8L539.5 266.8Q539.5 265.8 540.2 265.1Q541.0 264.4 542.1 264.4L542.1 264.4Q543.2 264.4 543.9 265.1Q544.7 265.8 544.7 266.8L544.7 266.8Q544.7 267.9 543.9 268.6Q543.2 269.3 542.1 269.3ZM548.4 265.7L553.2 265.7L553.2 289L548.4 289L548.4 265.7ZM565.0 289.3L565.0 289.3Q562.3 289.3 560.4 288.2Q558.5 287.1 557.4 285.1Q556.4 283.1 556.4 280.4L556.4 280.4Q556.4 277.7 557.4 275.6Q558.5 273.6 560.4 272.5Q562.3 271.3 564.8 271.3L564.8 271.3Q566.6 271.3 568.1 271.9Q569.5 272.4 570.7 273.5Q571.8 274.6 572.4 276.3Q573.0 278.0 573.0 280.2L573.0 280.2L573.0 281.5L558.3 281.5L558.3 278.5L568.5 278.5Q568.5 277.5 568.0 276.7Q567.6 275.9 566.8 275.4Q566.0 274.9 564.9 274.9L564.9 274.9Q563.8 274.9 563.0 275.4Q562.1 275.9 561.6 276.8Q561.2 277.6 561.1 278.7L561.1 278.7L561.1 281.5Q561.1 282.8 561.6 283.8Q562.1 284.7 563 285.2Q563.9 285.7 565.1 285.7L565.1 285.7Q565.9 285.7 566.6 285.5Q567.3 285.3 567.7 284.8Q568.2 284.4 568.5 283.7L568.5 283.7L572.9 284Q572.6 285.6 571.5 286.8Q570.5 288.0 568.8 288.7Q567.2 289.3 565.0 289.3ZM579.0 289.3L579.0 289.3Q577.9 289.3 577.1 288.5Q576.3 287.7 576.3 286.6L576.3 286.6Q576.3 285.5 577.1 284.7Q577.9 283.9 579.0 283.9L579.0 283.9Q580.1 283.9 580.9 284.7Q581.8 285.5 581.8 286.6L581.8 286.6Q581.8 287.3 581.4 287.9Q581.0 288.6 580.4 288.9Q579.8 289.3 579.0 289.3ZM596.9 271.5L602.0 271.5L595.9 289L590.4 289L584.3 271.5L589.4 271.5L593.1 284.0L593.3 284.0L596.9 271.5ZM611.8 289.3L611.8 289.3Q609.1 289.3 607.2 288.2Q605.3 287.1 604.2 285.1Q603.2 283.1 603.2 280.4L603.2 280.4Q603.2 277.7 604.2 275.6Q605.3 273.6 607.2 272.5Q609.1 271.3 611.6 271.3L611.6 271.3Q613.4 271.3 614.9 271.9Q616.4 272.4 617.5 273.5Q618.6 274.6 619.2 276.3Q619.9 278.0 619.9 280.2L619.9 280.2L619.9 281.5L605.1 281.5L605.1 278.5L615.3 278.5Q615.3 277.5 614.8 276.7Q614.4 275.9 613.6 275.4Q612.8 274.9 611.7 274.9L611.7 274.9Q610.6 274.9 609.8 275.4Q608.9 275.9 608.5 276.8Q608.0 277.6 608.0 278.7L608.0 278.7L608.0 281.5Q608.0 282.8 608.4 283.8Q608.9 284.7 609.8 285.2Q610.7 285.7 611.9 285.7L611.9 285.7Q612.7 285.7 613.4 285.5Q614.1 285.3 614.5 284.8Q615.0 284.4 615.3 283.7L615.3 283.7L619.8 284Q619.4 285.6 618.4 286.8Q617.3 288.0 615.7 288.7Q614 289.3 611.8 289.3ZM627.9 289L623.0 289L623.0 271.5L627.7 271.5L627.7 274.6L627.9 274.6Q628.4 273.0 629.5 272.1Q630.6 271.3 632.1 271.3L632.1 271.3Q632.4 271.3 632.9 271.3Q633.3 271.4 633.6 271.5L633.6 271.5L633.6 275.8Q633.3 275.7 632.7 275.6Q632.1 275.5 631.6 275.5L631.6 275.5Q630.5 275.5 629.7 276.0Q628.8 276.4 628.3 277.2Q627.9 278.1 627.9 279.1L627.9 279.1L627.9 289ZM643.2 289.3L643.2 289.3Q640.5 289.3 638.6 288.2Q636.6 287.1 635.6 285.0Q634.6 283.0 634.6 280.3L634.6 280.3Q634.6 277.7 635.6 275.6Q636.6 273.6 638.6 272.5Q640.5 271.3 643.1 271.3L643.1 271.3Q645.4 271.3 647.1 272.1Q648.9 273.0 649.9 274.5Q650.9 276.0 651.0 278L651.0 278L646.4 278Q646.2 276.7 645.4 275.9Q644.5 275.1 643.2 275.1L643.2 275.1Q642.1 275.1 641.3 275.7Q640.4 276.3 640.0 277.5Q639.5 278.6 639.5 280.3L639.5 280.3Q639.5 281.9 639.9 283.1Q640.4 284.3 641.3 284.9Q642.1 285.5 643.2 285.5L643.2 285.5Q644.0 285.5 644.7 285.2Q645.4 284.8 645.8 284.2Q646.3 283.5 646.4 282.6L646.4 282.6L651.0 282.6Q650.8 284.6 649.9 286.1Q648.9 287.6 647.2 288.5Q645.5 289.3 643.2 289.3ZM662.0 289.3L662.0 289.3Q659.3 289.3 657.4 288.2Q655.5 287.1 654.4 285.1Q653.4 283.1 653.4 280.4L653.4 280.4Q653.4 277.7 654.4 275.6Q655.5 273.6 657.4 272.5Q659.3 271.3 661.8 271.3L661.8 271.3Q663.6 271.3 665.1 271.9Q666.5 272.4 667.7 273.5Q668.8 274.6 669.4 276.3Q670.0 278.0 670.0 280.2L670.0 280.2L670.0 281.5L655.3 281.5L655.3 278.5L665.5 278.5Q665.5 277.5 665.0 276.7Q664.6 275.9 663.8 275.4Q663.0 274.9 661.9 274.9L661.9 274.9Q660.8 274.9 660.0 275.4Q659.1 275.9 658.6 276.8Q658.2 277.6 658.1 278.7L658.1 278.7L658.1 281.5Q658.1 282.8 658.6 283.8Q659.1 284.7 660.0 285.2Q660.9 285.7 662.1 285.7L662.1 285.7Q662.9 285.7 663.6 285.5Q664.2 285.3 664.7 284.8Q665.2 284.4 665.5 283.7L665.5 283.7L669.9 284Q669.6 285.6 668.5 286.8Q667.5 288.0 665.8 288.7Q664.2 289.3 662.0 289.3ZM673.2 265.7L678.0 265.7L678.0 289L673.2 289L673.2 265.7Z "/></g></svg>